<mxfile host="app.diagrams.net" modified="2024-05-02T07:25:02.125Z" agent="Mozilla/5.0 (Windows NT 10.0; Win64; x64; rv:125.0) Gecko/20100101 Firefox/125.0" etag="jP4oaEaR1F1y9MD-TFhf" version="24.3.0" type="device">
  <diagram name="Page-1" id="2YBvvXClWsGukQMizWep">
    <mxGraphModel dx="1235" dy="666" grid="1" gridSize="10" guides="1" tooltips="1" connect="1" arrows="1" fold="1" page="1" pageScale="1" pageWidth="850" pageHeight="1100" math="0" shadow="0">
      <root>
        <mxCell id="0" />
        <mxCell id="1" parent="0" />
        <mxCell id="aM9ryv3xv72pqoxQDRHE-1" value=": app" style="shape=umlLifeline;perimeter=lifelinePerimeter;whiteSpace=wrap;html=1;container=0;dropTarget=0;collapsible=0;recursiveResize=0;outlineConnect=0;portConstraint=eastwest;newEdgeStyle={&quot;edgeStyle&quot;:&quot;elbowEdgeStyle&quot;,&quot;elbow&quot;:&quot;vertical&quot;,&quot;curved&quot;:0,&quot;rounded&quot;:0};fillColor=#d5e8d4;strokeColor=#82b366;" parent="1" vertex="1">
          <mxGeometry x="140" y="40" width="100" height="700" as="geometry" />
        </mxCell>
        <mxCell id="aM9ryv3xv72pqoxQDRHE-2" value="" style="html=1;points=[];perimeter=orthogonalPerimeter;outlineConnect=0;targetShapes=umlLifeline;portConstraint=eastwest;newEdgeStyle={&quot;edgeStyle&quot;:&quot;elbowEdgeStyle&quot;,&quot;elbow&quot;:&quot;vertical&quot;,&quot;curved&quot;:0,&quot;rounded&quot;:0};fillColor=#d5e8d4;strokeColor=#82b366;" parent="aM9ryv3xv72pqoxQDRHE-1" vertex="1">
          <mxGeometry x="45" y="70" width="10" height="360" as="geometry" />
        </mxCell>
        <mxCell id="aM9ryv3xv72pqoxQDRHE-3" value="ouverture app" style="html=1;verticalAlign=bottom;startArrow=oval;endArrow=block;startSize=8;edgeStyle=elbowEdgeStyle;elbow=vertical;curved=0;rounded=0;" parent="aM9ryv3xv72pqoxQDRHE-1" target="aM9ryv3xv72pqoxQDRHE-2" edge="1">
          <mxGeometry relative="1" as="geometry">
            <mxPoint x="-90" y="70" as="sourcePoint" />
          </mxGeometry>
        </mxCell>
        <mxCell id="aM9ryv3xv72pqoxQDRHE-5" value=":vue movie" style="shape=umlLifeline;perimeter=lifelinePerimeter;whiteSpace=wrap;html=1;container=0;dropTarget=0;collapsible=0;recursiveResize=0;outlineConnect=0;portConstraint=eastwest;newEdgeStyle={&quot;edgeStyle&quot;:&quot;elbowEdgeStyle&quot;,&quot;elbow&quot;:&quot;vertical&quot;,&quot;curved&quot;:0,&quot;rounded&quot;:0};fillColor=#fff2cc;strokeColor=#d6b656;" parent="1" vertex="1">
          <mxGeometry x="500" y="40" width="100" height="700" as="geometry" />
        </mxCell>
        <mxCell id="aM9ryv3xv72pqoxQDRHE-6" value="" style="html=1;points=[];perimeter=orthogonalPerimeter;outlineConnect=0;targetShapes=umlLifeline;portConstraint=eastwest;newEdgeStyle={&quot;edgeStyle&quot;:&quot;elbowEdgeStyle&quot;,&quot;elbow&quot;:&quot;vertical&quot;,&quot;curved&quot;:0,&quot;rounded&quot;:0};fillColor=#fff2cc;strokeColor=#d6b656;" parent="aM9ryv3xv72pqoxQDRHE-5" vertex="1">
          <mxGeometry x="45" y="370" width="10" height="60" as="geometry" />
        </mxCell>
        <mxCell id="aM9ryv3xv72pqoxQDRHE-7" value="demande affichage " style="html=1;verticalAlign=bottom;endArrow=block;edgeStyle=elbowEdgeStyle;elbow=vertical;curved=0;rounded=0;" parent="1" target="53H3iFj_lqqziJ8YQ38P-20" edge="1">
          <mxGeometry x="0.2432" relative="1" as="geometry">
            <mxPoint x="235" y="110" as="sourcePoint" />
            <Array as="points">
              <mxPoint x="190" y="110" />
            </Array>
            <mxPoint x="330" y="110" as="targetPoint" />
            <mxPoint as="offset" />
          </mxGeometry>
        </mxCell>
        <mxCell id="aM9ryv3xv72pqoxQDRHE-8" value="return list cinema + list city" style="html=1;verticalAlign=bottom;endArrow=open;dashed=1;endSize=8;edgeStyle=elbowEdgeStyle;elbow=horizontal;curved=0;rounded=0;" parent="1" target="53H3iFj_lqqziJ8YQ38P-5" edge="1">
          <mxGeometry relative="1" as="geometry">
            <mxPoint x="780" y="150" as="targetPoint" />
            <Array as="points">
              <mxPoint x="800" y="150" />
            </Array>
            <mxPoint x="900" y="150" as="sourcePoint" />
          </mxGeometry>
        </mxCell>
        <mxCell id="53H3iFj_lqqziJ8YQ38P-1" value="user" style="shape=umlActor;verticalLabelPosition=bottom;verticalAlign=top;html=1;outlineConnect=0;fillColor=#f8cecc;strokeColor=#b85450;" vertex="1" parent="1">
          <mxGeometry x="30" y="20" width="30" height="60" as="geometry" />
        </mxCell>
        <mxCell id="53H3iFj_lqqziJ8YQ38P-2" value="" style="endArrow=none;dashed=1;html=1;dashPattern=1 3;strokeWidth=2;rounded=0;fillColor=#f8cecc;strokeColor=#b85450;" edge="1" parent="1" target="53H3iFj_lqqziJ8YQ38P-1">
          <mxGeometry width="50" height="50" relative="1" as="geometry">
            <mxPoint x="45" y="740" as="sourcePoint" />
            <mxPoint x="450" y="270" as="targetPoint" />
          </mxGeometry>
        </mxCell>
        <mxCell id="53H3iFj_lqqziJ8YQ38P-5" value=":buisness" style="shape=umlLifeline;perimeter=lifelinePerimeter;whiteSpace=wrap;html=1;container=0;dropTarget=0;collapsible=0;recursiveResize=0;outlineConnect=0;portConstraint=eastwest;newEdgeStyle={&quot;edgeStyle&quot;:&quot;elbowEdgeStyle&quot;,&quot;elbow&quot;:&quot;vertical&quot;,&quot;curved&quot;:0,&quot;rounded&quot;:0};fillColor=#dae8fc;strokeColor=#6c8ebf;" vertex="1" parent="1">
          <mxGeometry x="680" y="40" width="100" height="700" as="geometry" />
        </mxCell>
        <mxCell id="53H3iFj_lqqziJ8YQ38P-6" value="" style="html=1;points=[];perimeter=orthogonalPerimeter;outlineConnect=0;targetShapes=umlLifeline;portConstraint=eastwest;newEdgeStyle={&quot;edgeStyle&quot;:&quot;elbowEdgeStyle&quot;,&quot;elbow&quot;:&quot;vertical&quot;,&quot;curved&quot;:0,&quot;rounded&quot;:0};fillColor=#dae8fc;strokeColor=#6c8ebf;" vertex="1" parent="53H3iFj_lqqziJ8YQ38P-5">
          <mxGeometry x="45" y="70" width="10" height="360" as="geometry" />
        </mxCell>
        <mxCell id="53H3iFj_lqqziJ8YQ38P-7" value=":repository" style="shape=umlLifeline;perimeter=lifelinePerimeter;whiteSpace=wrap;html=1;container=0;dropTarget=0;collapsible=0;recursiveResize=0;outlineConnect=0;portConstraint=eastwest;newEdgeStyle={&quot;edgeStyle&quot;:&quot;elbowEdgeStyle&quot;,&quot;elbow&quot;:&quot;vertical&quot;,&quot;curved&quot;:0,&quot;rounded&quot;:0};fillColor=#e1d5e7;strokeColor=#9673a6;" vertex="1" parent="1">
          <mxGeometry x="860" y="40" width="100" height="700" as="geometry" />
        </mxCell>
        <mxCell id="53H3iFj_lqqziJ8YQ38P-8" value="" style="html=1;points=[];perimeter=orthogonalPerimeter;outlineConnect=0;targetShapes=umlLifeline;portConstraint=eastwest;newEdgeStyle={&quot;edgeStyle&quot;:&quot;elbowEdgeStyle&quot;,&quot;elbow&quot;:&quot;vertical&quot;,&quot;curved&quot;:0,&quot;rounded&quot;:0};fillColor=#e1d5e7;strokeColor=#9673a6;" vertex="1" parent="53H3iFj_lqqziJ8YQ38P-7">
          <mxGeometry x="45" y="70" width="10" height="360" as="geometry" />
        </mxCell>
        <mxCell id="53H3iFj_lqqziJ8YQ38P-9" value=":database" style="shape=umlLifeline;perimeter=lifelinePerimeter;whiteSpace=wrap;html=1;container=0;dropTarget=0;collapsible=0;recursiveResize=0;outlineConnect=0;portConstraint=eastwest;newEdgeStyle={&quot;edgeStyle&quot;:&quot;elbowEdgeStyle&quot;,&quot;elbow&quot;:&quot;vertical&quot;,&quot;curved&quot;:0,&quot;rounded&quot;:0};fillColor=#f5f5f5;fontColor=#333333;strokeColor=#666666;" vertex="1" parent="1">
          <mxGeometry x="1120" y="40" width="100" height="700" as="geometry" />
        </mxCell>
        <mxCell id="53H3iFj_lqqziJ8YQ38P-10" value="" style="html=1;points=[];perimeter=orthogonalPerimeter;outlineConnect=0;targetShapes=umlLifeline;portConstraint=eastwest;newEdgeStyle={&quot;edgeStyle&quot;:&quot;elbowEdgeStyle&quot;,&quot;elbow&quot;:&quot;vertical&quot;,&quot;curved&quot;:0,&quot;rounded&quot;:0};fillColor=#f5f5f5;fontColor=#333333;strokeColor=#666666;" vertex="1" parent="53H3iFj_lqqziJ8YQ38P-9">
          <mxGeometry x="45" y="70" width="10" height="40" as="geometry" />
        </mxCell>
        <mxCell id="53H3iFj_lqqziJ8YQ38P-28" value="" style="html=1;points=[];perimeter=orthogonalPerimeter;outlineConnect=0;targetShapes=umlLifeline;portConstraint=eastwest;newEdgeStyle={&quot;edgeStyle&quot;:&quot;elbowEdgeStyle&quot;,&quot;elbow&quot;:&quot;vertical&quot;,&quot;curved&quot;:0,&quot;rounded&quot;:0};fillColor=#f5f5f5;fontColor=#333333;strokeColor=#666666;" vertex="1" parent="53H3iFj_lqqziJ8YQ38P-9">
          <mxGeometry x="45" y="200" width="10" height="40" as="geometry" />
        </mxCell>
        <mxCell id="53H3iFj_lqqziJ8YQ38P-38" value="" style="html=1;points=[];perimeter=orthogonalPerimeter;outlineConnect=0;targetShapes=umlLifeline;portConstraint=eastwest;newEdgeStyle={&quot;edgeStyle&quot;:&quot;elbowEdgeStyle&quot;,&quot;elbow&quot;:&quot;vertical&quot;,&quot;curved&quot;:0,&quot;rounded&quot;:0};fillColor=#f5f5f5;fontColor=#333333;strokeColor=#666666;" vertex="1" parent="53H3iFj_lqqziJ8YQ38P-9">
          <mxGeometry x="45" y="330" width="10" height="40" as="geometry" />
        </mxCell>
        <mxCell id="53H3iFj_lqqziJ8YQ38P-11" value="demande affichage " style="html=1;verticalAlign=bottom;endArrow=block;edgeStyle=elbowEdgeStyle;elbow=vertical;curved=0;rounded=0;" edge="1" parent="1" target="53H3iFj_lqqziJ8YQ38P-5">
          <mxGeometry x="0.2432" relative="1" as="geometry">
            <mxPoint x="375" y="110" as="sourcePoint" />
            <Array as="points" />
            <mxPoint x="470" y="110" as="targetPoint" />
            <mxPoint as="offset" />
          </mxGeometry>
        </mxCell>
        <mxCell id="53H3iFj_lqqziJ8YQ38P-12" value="getCinemaPages() + getcity()" style="html=1;verticalAlign=bottom;endArrow=block;edgeStyle=elbowEdgeStyle;elbow=vertical;curved=0;rounded=0;entryX=0.5;entryY=0.1;entryDx=0;entryDy=0;entryPerimeter=0;" edge="1" parent="1" target="53H3iFj_lqqziJ8YQ38P-7">
          <mxGeometry x="0.2432" relative="1" as="geometry">
            <mxPoint x="775" y="110" as="sourcePoint" />
            <Array as="points">
              <mxPoint x="730" y="110" />
            </Array>
            <mxPoint x="870" y="110" as="targetPoint" />
            <mxPoint as="offset" />
          </mxGeometry>
        </mxCell>
        <mxCell id="53H3iFj_lqqziJ8YQ38P-13" value="findByNameContain(&#39;&#39;) +findAllCity" style="html=1;verticalAlign=bottom;endArrow=block;edgeStyle=elbowEdgeStyle;elbow=vertical;curved=0;rounded=0;" edge="1" parent="1" target="53H3iFj_lqqziJ8YQ38P-9">
          <mxGeometry x="0.2432" relative="1" as="geometry">
            <mxPoint x="955" y="110" as="sourcePoint" />
            <Array as="points">
              <mxPoint x="910" y="110" />
            </Array>
            <mxPoint x="1050" y="110" as="targetPoint" />
            <mxPoint as="offset" />
          </mxGeometry>
        </mxCell>
        <mxCell id="53H3iFj_lqqziJ8YQ38P-16" value="return list cinema + list city" style="html=1;verticalAlign=bottom;endArrow=open;dashed=1;endSize=8;edgeStyle=elbowEdgeStyle;elbow=vertical;curved=0;rounded=0;" edge="1" parent="1" source="53H3iFj_lqqziJ8YQ38P-5" target="53H3iFj_lqqziJ8YQ38P-20">
          <mxGeometry relative="1" as="geometry">
            <mxPoint x="480" y="150" as="targetPoint" />
            <Array as="points">
              <mxPoint x="500" y="150" />
            </Array>
            <mxPoint x="600" y="150" as="sourcePoint" />
          </mxGeometry>
        </mxCell>
        <mxCell id="53H3iFj_lqqziJ8YQ38P-19" value="affichagelist cinema + city" style="html=1;verticalAlign=bottom;endArrow=open;dashed=1;endSize=8;edgeStyle=elbowEdgeStyle;elbow=vertical;curved=0;rounded=0;" edge="1" parent="1" source="53H3iFj_lqqziJ8YQ38P-20">
          <mxGeometry relative="1" as="geometry">
            <mxPoint x="50" y="150" as="targetPoint" />
            <Array as="points">
              <mxPoint x="80" y="150" />
            </Array>
            <mxPoint x="180" y="150" as="sourcePoint" />
          </mxGeometry>
        </mxCell>
        <mxCell id="53H3iFj_lqqziJ8YQ38P-20" value=":vue index" style="shape=umlLifeline;perimeter=lifelinePerimeter;whiteSpace=wrap;html=1;container=0;dropTarget=0;collapsible=0;recursiveResize=0;outlineConnect=0;portConstraint=eastwest;newEdgeStyle={&quot;edgeStyle&quot;:&quot;elbowEdgeStyle&quot;,&quot;elbow&quot;:&quot;vertical&quot;,&quot;curved&quot;:0,&quot;rounded&quot;:0};fillColor=#fff2cc;strokeColor=#d6b656;" vertex="1" parent="1">
          <mxGeometry x="320" y="40" width="100" height="700" as="geometry" />
        </mxCell>
        <mxCell id="53H3iFj_lqqziJ8YQ38P-21" value="" style="html=1;points=[];perimeter=orthogonalPerimeter;outlineConnect=0;targetShapes=umlLifeline;portConstraint=eastwest;newEdgeStyle={&quot;edgeStyle&quot;:&quot;elbowEdgeStyle&quot;,&quot;elbow&quot;:&quot;vertical&quot;,&quot;curved&quot;:0,&quot;rounded&quot;:0};fillColor=#fff2cc;strokeColor=#d6b656;" vertex="1" parent="53H3iFj_lqqziJ8YQ38P-20">
          <mxGeometry x="45" y="70" width="10" height="260" as="geometry" />
        </mxCell>
        <mxCell id="53H3iFj_lqqziJ8YQ38P-22" value="return list cinema + list city" style="html=1;verticalAlign=bottom;endArrow=open;dashed=1;endSize=8;edgeStyle=elbowEdgeStyle;elbow=vertical;curved=0;rounded=0;" edge="1" parent="1" source="53H3iFj_lqqziJ8YQ38P-9" target="53H3iFj_lqqziJ8YQ38P-7">
          <mxGeometry relative="1" as="geometry">
            <mxPoint x="960" y="150" as="targetPoint" />
            <Array as="points">
              <mxPoint x="980" y="150" />
            </Array>
            <mxPoint x="1080" y="150" as="sourcePoint" />
          </mxGeometry>
        </mxCell>
        <mxCell id="53H3iFj_lqqziJ8YQ38P-23" value="demande affichage cinema par ville" style="html=1;verticalAlign=bottom;startArrow=oval;endArrow=block;startSize=8;edgeStyle=elbowEdgeStyle;elbow=vertical;curved=0;rounded=0;" edge="1" parent="1" target="53H3iFj_lqqziJ8YQ38P-20">
          <mxGeometry relative="1" as="geometry">
            <mxPoint x="50" y="240.12" as="sourcePoint" />
            <mxPoint x="185" y="240.12" as="targetPoint" />
          </mxGeometry>
        </mxCell>
        <mxCell id="53H3iFj_lqqziJ8YQ38P-26" value="demande affichage " style="html=1;verticalAlign=bottom;endArrow=block;edgeStyle=elbowEdgeStyle;elbow=vertical;curved=0;rounded=0;" edge="1" parent="1">
          <mxGeometry x="0.2432" relative="1" as="geometry">
            <mxPoint x="372.5" y="240.12" as="sourcePoint" />
            <Array as="points" />
            <mxPoint x="727.5" y="240.12" as="targetPoint" />
            <mxPoint as="offset" />
          </mxGeometry>
        </mxCell>
        <mxCell id="53H3iFj_lqqziJ8YQ38P-27" value="getCinemaByCity()" style="html=1;verticalAlign=bottom;endArrow=block;edgeStyle=elbowEdgeStyle;elbow=vertical;curved=0;rounded=0;entryX=0.5;entryY=0.1;entryDx=0;entryDy=0;entryPerimeter=0;" edge="1" parent="1">
          <mxGeometry x="0.2432" relative="1" as="geometry">
            <mxPoint x="775" y="240" as="sourcePoint" />
            <Array as="points">
              <mxPoint x="730" y="240" />
            </Array>
            <mxPoint x="910" y="240" as="targetPoint" />
            <mxPoint as="offset" />
          </mxGeometry>
        </mxCell>
        <mxCell id="53H3iFj_lqqziJ8YQ38P-29" value="findById()" style="html=1;verticalAlign=bottom;endArrow=block;edgeStyle=elbowEdgeStyle;elbow=vertical;curved=0;rounded=0;" edge="1" parent="1">
          <mxGeometry x="0.2432" relative="1" as="geometry">
            <mxPoint x="955" y="240" as="sourcePoint" />
            <Array as="points">
              <mxPoint x="910" y="240" />
            </Array>
            <mxPoint x="1170" y="240" as="targetPoint" />
            <mxPoint as="offset" />
          </mxGeometry>
        </mxCell>
        <mxCell id="53H3iFj_lqqziJ8YQ38P-31" value="return list cinema by city" style="html=1;verticalAlign=bottom;endArrow=open;dashed=1;endSize=8;edgeStyle=elbowEdgeStyle;elbow=vertical;curved=0;rounded=0;" edge="1" parent="1">
          <mxGeometry relative="1" as="geometry">
            <mxPoint x="910" y="280" as="targetPoint" />
            <Array as="points">
              <mxPoint x="981" y="280" />
            </Array>
            <mxPoint x="1171" y="280" as="sourcePoint" />
          </mxGeometry>
        </mxCell>
        <mxCell id="53H3iFj_lqqziJ8YQ38P-32" value="return list cinema by city" style="html=1;verticalAlign=bottom;endArrow=open;dashed=1;endSize=8;edgeStyle=elbowEdgeStyle;elbow=horizontal;curved=0;rounded=0;" edge="1" parent="1">
          <mxGeometry relative="1" as="geometry">
            <mxPoint x="740" y="280" as="targetPoint" />
            <Array as="points" />
            <mxPoint x="901" y="280" as="sourcePoint" />
          </mxGeometry>
        </mxCell>
        <mxCell id="53H3iFj_lqqziJ8YQ38P-33" value="return list cinema by city" style="html=1;verticalAlign=bottom;endArrow=open;dashed=1;endSize=8;edgeStyle=elbowEdgeStyle;elbow=vertical;curved=0;rounded=0;" edge="1" parent="1" target="53H3iFj_lqqziJ8YQ38P-20">
          <mxGeometry relative="1" as="geometry">
            <mxPoint x="560" y="280" as="targetPoint" />
            <Array as="points" />
            <mxPoint x="721" y="280" as="sourcePoint" />
          </mxGeometry>
        </mxCell>
        <mxCell id="53H3iFj_lqqziJ8YQ38P-34" value="effichage cinema par ville" style="html=1;verticalAlign=bottom;endArrow=open;dashed=1;endSize=8;edgeStyle=elbowEdgeStyle;elbow=vertical;curved=0;rounded=0;" edge="1" parent="1">
          <mxGeometry relative="1" as="geometry">
            <mxPoint x="50" y="280" as="targetPoint" />
            <Array as="points" />
            <mxPoint x="361" y="280.12" as="sourcePoint" />
          </mxGeometry>
        </mxCell>
        <mxCell id="53H3iFj_lqqziJ8YQ38P-35" value="demande affichage films par cinema" style="html=1;verticalAlign=bottom;startArrow=oval;endArrow=block;startSize=8;edgeStyle=elbowEdgeStyle;elbow=vertical;curved=0;rounded=0;" edge="1" parent="1">
          <mxGeometry relative="1" as="geometry">
            <mxPoint x="50" y="370.24" as="sourcePoint" />
            <mxPoint x="370" y="370.12" as="targetPoint" />
          </mxGeometry>
        </mxCell>
        <mxCell id="53H3iFj_lqqziJ8YQ38P-36" value="demande affichage " style="html=1;verticalAlign=bottom;endArrow=block;edgeStyle=elbowEdgeStyle;elbow=vertical;curved=0;rounded=0;" edge="1" parent="1">
          <mxGeometry x="0.2432" relative="1" as="geometry">
            <mxPoint x="372.5" y="370" as="sourcePoint" />
            <Array as="points" />
            <mxPoint x="727.5" y="370" as="targetPoint" />
            <mxPoint as="offset" />
          </mxGeometry>
        </mxCell>
        <mxCell id="53H3iFj_lqqziJ8YQ38P-37" value="getMovieByCinemaPages()" style="html=1;verticalAlign=bottom;endArrow=block;edgeStyle=elbowEdgeStyle;elbow=vertical;curved=0;rounded=0;entryX=0.5;entryY=0.1;entryDx=0;entryDy=0;entryPerimeter=0;" edge="1" parent="1">
          <mxGeometry x="0.2432" relative="1" as="geometry">
            <mxPoint x="775" y="370" as="sourcePoint" />
            <Array as="points">
              <mxPoint x="730" y="370" />
            </Array>
            <mxPoint x="910" y="370" as="targetPoint" />
            <mxPoint as="offset" />
          </mxGeometry>
        </mxCell>
        <mxCell id="53H3iFj_lqqziJ8YQ38P-39" value="findByCinemaId()" style="html=1;verticalAlign=bottom;endArrow=block;edgeStyle=elbowEdgeStyle;elbow=vertical;curved=0;rounded=0;" edge="1" parent="1">
          <mxGeometry x="0.2432" relative="1" as="geometry">
            <mxPoint x="955" y="370" as="sourcePoint" />
            <Array as="points">
              <mxPoint x="910" y="370" />
            </Array>
            <mxPoint x="1170" y="370" as="targetPoint" />
            <mxPoint as="offset" />
          </mxGeometry>
        </mxCell>
        <mxCell id="53H3iFj_lqqziJ8YQ38P-40" value="return list movie by cinema" style="html=1;verticalAlign=bottom;endArrow=open;dashed=1;endSize=8;edgeStyle=elbowEdgeStyle;elbow=vertical;curved=0;rounded=0;" edge="1" parent="1">
          <mxGeometry relative="1" as="geometry">
            <mxPoint x="910" y="410" as="targetPoint" />
            <Array as="points">
              <mxPoint x="981" y="410" />
            </Array>
            <mxPoint x="1171" y="410" as="sourcePoint" />
          </mxGeometry>
        </mxCell>
        <mxCell id="53H3iFj_lqqziJ8YQ38P-41" value="return list movie by cinema" style="html=1;verticalAlign=bottom;endArrow=open;dashed=1;endSize=8;edgeStyle=elbowEdgeStyle;elbow=vertical;curved=0;rounded=0;" edge="1" parent="1">
          <mxGeometry relative="1" as="geometry">
            <mxPoint x="740" y="410" as="targetPoint" />
            <Array as="points" />
            <mxPoint x="901" y="410" as="sourcePoint" />
          </mxGeometry>
        </mxCell>
        <mxCell id="53H3iFj_lqqziJ8YQ38P-42" value="return list movie by cinema" style="html=1;verticalAlign=bottom;endArrow=open;dashed=1;endSize=8;edgeStyle=elbowEdgeStyle;elbow=vertical;curved=0;rounded=0;" edge="1" parent="1">
          <mxGeometry relative="1" as="geometry">
            <mxPoint x="560" y="410.12" as="targetPoint" />
            <Array as="points" />
            <mxPoint x="721" y="410.12" as="sourcePoint" />
          </mxGeometry>
        </mxCell>
        <mxCell id="53H3iFj_lqqziJ8YQ38P-43" value="affichage movie by cinema" style="html=1;verticalAlign=bottom;endArrow=open;dashed=1;endSize=8;edgeStyle=elbowEdgeStyle;elbow=vertical;curved=0;rounded=0;" edge="1" parent="1">
          <mxGeometry x="0.4286" relative="1" as="geometry">
            <mxPoint x="50" y="410" as="targetPoint" />
            <Array as="points" />
            <mxPoint x="541" y="410.24" as="sourcePoint" />
            <mxPoint x="1" as="offset" />
          </mxGeometry>
        </mxCell>
      </root>
    </mxGraphModel>
  </diagram>
</mxfile>
